PathFileType	4	(X/Y/Z)	C:\Users\willi\Documents\UniDataLokal\DATA_Hans_PhD\TD03\3DGAIT_B_W4\marker_experimental.trc
DataRate	CameraRate	NumFrames	NumMarkers	Units	OrigDataRate	OrigDataStartFrame	OrigNumFrames
100.000000	100.000000	3	137	mm	100.000000	131	210
Frame#	Time	LFEO			LFEA			LFEL			LFEP			LFOO			LFOA			LFOL			LFOP			LTIO			LTIA			LTIL			LTIP			LTOO			LTOA			LTOL			LTOP			PELO			PELA			PELL			PELP			RFEO			RFEA			RFEL			RFEP			RFOO			RFOA			RFOL			RFOP			RTIO			RTIA			RTIL			RTIP			RTOO			RTOA			RTOL			RTOP			TRXO			TRXA			TRXL			TRXP			C7			T10			CLAV			STRN			RBAK			LASI			RASI			LPSI			RPSI			LTHI			LKNE			LMKNE			LPAT			LTUB			LTIB			LANK			LMMA			LHEE			LTOE			LD5M			RTHI			RKNE			RMKNE			RPAT			RTUB			RTIB			RANK			RMMA			RHEE			RTOE			RD5M			LTH1			LTH2			LTH3			LTB1			LTB2			LTB3			LTB4			LTB5			RTH1			RTH2			RTH3			RTB1			RTB2			RTB3			RTB4			RTB5			LIC			RIC			CentreOfMass			CentreOfMassFloor			LHipAngles			LKneeAngles			LAnkleAngles			LAbsAnkleAngle			RHipAngles			RKneeAngles			RAnkleAngles			RAbsAnkleAngle			LSpineAngles			RSpineAngles			LThoraxAngles			RThoraxAngles			LPelvisAngles			RPelvisAngles			LFootProgressAngles			RFootProgressAngles			LAnklePower			RAnklePower			LKneePower			RKneePower			LHipPower			RHipPower			LWaistPower			RWaistPower			LGroundReactionForce			RGroundReactionForce			LNormalisedGRF			RNormalisedGRF			LAnkleForce			RAnkleForce			LKneeForce			RKneeForce			LHipForce			RHipForce			LWaistForce			RWaistForce			LGroundReactionMoment			RGroundReactionMoment			LAnkleMoment			RAnkleMoment			LKneeMoment			RKneeMoment			LHipMoment			RHipMoment			LWaistMoment			RWaistMoment			
		X1	Y1	Z1	X2	Y2	Z2	X3	Y3	Z3	X4	Y4	Z4	X5	Y5	Z5	X6	Y6	Z6	X7	Y7	Z7	X8	Y8	Z8	X9	Y9	Z9	X10	Y10	Z10	X11	Y11	Z11	X12	Y12	Z12	X13	Y13	Z13	X14	Y14	Z14	X15	Y15	Z15	X16	Y16	Z16	X17	Y17	Z17	X18	Y18	Z18	X19	Y19	Z19	X20	Y20	Z20	X21	Y21	Z21	X22	Y22	Z22	X23	Y23	Z23	X24	Y24	Z24	X25	Y25	Z25	X26	Y26	Z26	X27	Y27	Z27	X28	Y28	Z28	X29	Y29	Z29	X30	Y30	Z30	X31	Y31	Z31	X32	Y32	Z32	X33	Y33	Z33	X34	Y34	Z34	X35	Y35	Z35	X36	Y36	Z36	X37	Y37	Z37	X38	Y38	Z38	X39	Y39	Z39	X40	Y40	Z40	X41	Y41	Z41	X42	Y42	Z42	X43	Y43	Z43	X44	Y44	Z44	X45	Y45	Z45	X46	Y46	Z46	X47	Y47	Z47	X48	Y48	Z48	X49	Y49	Z49	X50	Y50	Z50	X51	Y51	Z51	X52	Y52	Z52	X53	Y53	Z53	X54	Y54	Z54	X55	Y55	Z55	X56	Y56	Z56	X57	Y57	Z57	X58	Y58	Z58	X59	Y59	Z59	X60	Y60	Z60	X61	Y61	Z61	X62	Y62	Z62	X63	Y63	Z63	X64	Y64	Z64	X65	Y65	Z65	X66	Y66	Z66	X67	Y67	Z67	X68	Y68	Z68	X69	Y69	Z69	X70	Y70	Z70	X71	Y71	Z71	X72	Y72	Z72	X73	Y73	Z73	X74	Y74	Z74	X75	Y75	Z75	X76	Y76	Z76	X77	Y77	Z77	X78	Y78	Z78	X79	Y79	Z79	X80	Y80	Z80	X81	Y81	Z81	X82	Y82	Z82	X83	Y83	Z83	X84	Y84	Z84	X85	Y85	Z85	X86	Y86	Z86	X87	Y87	Z87	X88	Y88	Z88	X89	Y89	Z89	X90	Y90	Z90	X91	Y91	Z91	X92	Y92	Z92	X93	Y93	Z93	X94	Y94	Z94	X95	Y95	Z95	X96	Y96	Z96	X97	Y97	Z97	X98	Y98	Z98	X99	Y99	Z99	X100	Y100	Z100	X101	Y101	Z101	X102	Y102	Z102	X103	Y103	Z103	X104	Y104	Z104	X105	Y105	Z105	X106	Y106	Z106	X107	Y107	Z107	X108	Y108	Z108	X109	Y109	Z109	X110	Y110	Z110	X111	Y111	Z111	X112	Y112	Z112	X113	Y113	Z113	X114	Y114	Z114	X115	Y115	Z115	X116	Y116	Z116	X117	Y117	Z117	X118	Y118	Z118	X119	Y119	Z119	X120	Y120	Z120	X121	Y121	Z121	X122	Y122	Z122	X123	Y123	Z123	X124	Y124	Z124	X125	Y125	Z125	X126	Y126	Z126	X127	Y127	Z127	X128	Y128	Z128	X129	Y129	Z129	X130	Y130	Z130	X131	Y131	Z131	X132	Y132	Z132	X133	Y133	Z133	X134	Y134	Z134	X135	Y135	Z135	X136	Y136	Z136	X137	Y137	Z137	

132	1.31	26.91228675842287	441.3059692382812	211.3083343505859	362.0496520996094	344.4228210449219	139.1545715332032	-46.15001678466793	448.1916809082031	-137.2946624755859	123.1121063232422	784.0534057617188	197.9162445068359	-92.16503143310548	53.53663635253907	178.1744995117188	-21.62467956542968	234.2156219482422	186.9826812744141	-112.8490142822266	70.98508453369141	-14.09132385253907	-271.8721923828125	122.4501953125	203.7614288330078	-213.8300323486328	113.0937957763672	209.4303741455078	58.71180725097656	-85.76959228515625	26.79438781738282	-360.1781311035156	222.3699188232422	-127.9456329345703	13.0725555419922	422.4378051757812	211.2003631591797	-32.26264953613282	30.5654582977295	169.6455383300781	-8.749197006225591	90.79178619384766	172.5816040039062	-39.15729522705079	36.38160705566406	105.5569229125977	-92.16502380371095	53.53664016723634	178.1744995117188	139.4234466552735	785.869140625	262.6009826660156	268.5213623046876	775.5416259765625	230.3367614746094	106.8008270263672	782.2376098632812	133.2314453125	148.555892944336	918.88818359375	256.5641174316406	273.8970336914063	467.9267578125	326.2812805175781	586.9088745117188	583.813720703125	256.9821472167969	208.5530090332032	444.8283081054688	-7.492889404296863	155.7348022460938	787.684814453125	327.2857971191406	489.1327514648438	65.6651916503906	373.9048767089844	475.7684936523438	258.5479125976562	367.7358093261719	517.3902587890625	61.50389099121091	182.5815887451172	298.2314453125	51.54627990722654	346.0167541503906	354.5509338378906	67.92354583740232	341.2481689453125	728.3409423828125	144.9254913330078	384.9053039550782	400.1404724121094	62.84588241577146	-40.13095092773435	278.6770935058594	444.2201843261719	327.1683044433594	552.7665405273438	70.37150573730466	383.2009277343751	548.3118286132812	134.6657409667968	381.1445922851563	562.1856689453125	68.98439788818357	319.4265136718751	489.1327514648438	65.66522216796872	373.9049682617188	154.0666961669922	1253.600952148438	275.0008850097656	nan	nan	nan	nan	nan	nan	nan	nan	nan	47.71294403076178	1323.951782226562	269.0055847167969	14.65672779083257	1020.7177734375	275.4545288085938	158.5643615722657	1253.743408203125	275.0283813476562	206.4302520751953	1088.739379882812	271.3519897460938	12.00812816619878	1228.87353515625	377.8985595703125	157.3964996337891	868.5380859375	143.1108093261719	210.7674102783203	874.479248046875	354.760498046875	5.361236572265664	884.8275146484375	251.6464385986328	28.68623733520511	884.968505859375	330.8338317871094	33.50624847412112	550.7260131835938	95.01390075683594	13.99156570434572	442.5236511230469	149.6595306396484	6.262196063995371	432.522705078125	272.5343017578125	56.04885482788087	404.5113525390625	200.1334228515625	12.80284690856935	364.7403869628906	199.0970001220703	-171.5853576660156	254.1592407226562	118.8715057373047	-228.3258972167969	123.9176483154297	176.0130920410156	-200.958236694336	119.5202407836914	253.7280578613281	-294.6448974609375	103.8718032836914	218.5450286865234	-111.5767440795899	30.87471199035645	182.0070343017578	-152.7272186279297	11.71665573120118	142.2412719726562	275.8447875976563	526.7612915039062	433.4662780761719	286.3565063476563	472.3310546875	389.9237060546875	273.2275390625	461.5711364746094	254.5470275878907	347.1719665527344	476.3089294433594	310.6497802734375	352.1806335449219	410.6282348632812	324.4613037109375	319.0068359375	192.8449554443359	425.2394714355469	350.1002807617188	68.41925048828122	378.4797973632812	372.0286865234375	85.00959777832028	297.8138427734375	299.0119934082031	28.70314407348631	338.0146484375	494.1614379882812	45.68206024169919	364.7638549804688	467.4519653320312	32.96072769165036	408.3179626464844	-25.16597366333005	624.3389892578125	170.7421722412109	-8.482437133789036	572.2003784179688	138.2913665771484	-41.75078964233396	530.760498046875	177.7480316162109	-69.87660980224609	272.3938598632812	221.2839965820312	-98.80414581298828	234.3293304443359	172.3148498535156	-126.5792388916016	197.6453399658203	225.5269012451172	-18.65297889709471	412.0594177246094	146.6175994873047	-24.17800521850585	410.7065734863281	269.6654968261719	199.0711212158203	596.8463745117188	408.8539733886719	265.4663085937501	572.25732421875	400.1812744140625	246.7294311523438	505.9231872558594	396.1451110839844	355.6896667480469	328.8275756835938	316.1378784179688	360.14013671875	278.4608459472656	372.0936584472656	364.0492858886719	229.3002319335937	320.4867858886719	292.8711547851562	440.631591796875	387.2492980957031	277.6503601074219	415.6456604003906	262.033203125	71.74157714843754	937.1776123046875	125.0112152099609	134.287826538086	952.477783203125	407.1389770507812	145.9430847167969	818.9406127929688	268.9991455078125	145.9430847167968	-8.936436577805815e-15	268.9991455078125	3.195514678955077	1.504859209060669	11.3114652633667	6.32850456237793	-18.18173217773438	-19.7696647644043	5.278565883636476	19.77218055725098	-16.0777473449707	9.250078417663091e-16	0	-15.10652446746826	3.23002600669861	-2.102929830551147	-24.15561485290527	0.4224718809127802	-18.14338874816895	-9.155157089233398	-0.5893889665603643	-1.54580819606781	7.397848129272461	-4.528217661840374e-16	0	7.395140647888184	2.290015935897826	-14.38675689697266	5.723791122436523	-2.290015935897827	14.38675689697266	5.723791122436523	0.3390889167785643	0.3506372570991516	1.811576843261719	-0.3390889167785646	-0.3506372570991516	1.811576843261719	2.592393398284912	-14.00366306304932	-3.927494525909424	-2.592393398284911	14.00366306304932	-3.927494525909424	2.623037338256831	-7.572583675384521	69.01934051513672	1.846818447113031	-8.289022445678711	94.22987365722656	1.785878916149428e-16	2.916561603546143	1.09353544916357e-32	1.457478565190785e-18	0.02380243130028248	8.924482298433862e-35	-5.77580944933087e-17	-0.9432612657546997	-3.536663277304043e-33	9.435941505954667e-19	0.01541006192564964	5.77784778110452e-35	3.084982946285633e-17	0.5038159489631653	1.889007245296436e-33	1.003001885572701e-17	0.1638026386499405	6.141615243526838e-34	-1.455687527707111e-17	-0.2377318143844604	-8.913515356826187e-34	-1.455687527707111e-17	-0.2377318143844604	-8.913515356826187e-34	1.616153001785279	7.672421455383301	0.3406644165515901	-0.5950368642807005	4.441467761993408	0.09875180572271343	3.472624063491825	78.21021270751953	16.47454643249512	-1.006644248962399	45.27489852905273	-6.065615653991699	0.1664095968008047	1.301543712615967	-7.598111629486084	-0.2381598204374311	0.2091324329376221	-4.184295177459717	1.258911371231079	-6.246078491210938	-3.102552652359009	-0.02946064434945608	-3.577126741409302	0.3796909153461456	-0.4127140343189242	-5.770176887512207	-1.235567808151245	0.1140831112861631	-2.203972101211548	0.7262430191040039	-0.3468595147132877	-6.351211547851562	-0.1957327425479889	-0.3468595147132877	-6.351211547851562	-0.1957327425479889	305.0438537597656	-157.3182067871094	1347.71240234375	-461.4493408203125	-70.10897064208982	91.07814025878903	-12.60374164581292	18.03404426574707	-1029.84228515625	-6.329558849334724	1.954030990600586	114.4430389404297	146.9250030517578	25.72818565368651	-257.850830078125	34.86310577392578	-0.4420098066329977	20.02338981628418	-108.1455459594727	13.89734554290772	804.0281982421875	43.21803665161135	5.886414051055906	-338.8928527832031	40.3228950500488	40.34834671020508	508.2420654296875	-40.32289505004886	-40.34834671020508	508.2420654296875	
133	1.32	42.69969177246095	440.4461059570312	210.5040588378906	379.053466796875	345.5075988769531	137.445297241211	-30.40792083740231	450.2720336914062	-138.8431701660156	137.6005859375001	784.5025634765625	200.3213195800781	-90.15347290039064	51.91015243530274	177.5677337646484	-8.898895263671871	228.1693725585938	182.9339294433594	-111.1016616821289	67.42485046386719	-14.83520507812501	-265.2456665039062	131.8501129150391	203.0772705078125	-207.8270416259766	119.1349105834961	208.5535736083984	58.30879211425781	-87.25116729736328	23.98883056640625	-352.3881530761719	233.8938293457032	-128.2254486083985	28.31158447265626	421.9926452636719	210.3920440673828	-31.78939247131349	25.26350021362305	169.0645599365234	-4.704519271850591	84.01657104492188	170.8532867431641	-38.77212142944337	30.43505477905274	104.9302368164062	-90.15346527099611	51.91016387939454	177.5677337646484	153.5563507080078	786.643310546875	265.0848083496094	282.8373413085938	776.2713623046875	233.5767822265625	121.6448822021485	782.3618774414062	135.557861328125	162.6112823486328	919.6395263671875	258.4578247070312	285.7841186523438	468.9723510742188	326.9054565429688	599.4027709960938	583.5969848632812	261.2402038574219	223.0820007324219	449.2485046386719	-6.990936279296862	169.5121154785157	788.7840576171875	329.8482360839844	491.1997680664062	62.25542068481442	373.3756713867188	481.8683166503906	255.3119812011718	365.4705200195313	518.4417114257812	55.73466491699216	181.9709777832032	299.9114990234375	51.9090995788574	346.5027465820312	356.5395812988281	67.05027008056638	341.3215026855469	733.3775634765625	134.5330505371093	373.1941833496094	390.2923278808594	59.26946640014646	-41.27084350585935	289.9772338867188	445.1537780761719	327.759765625	554.9625854492188	65.70420837402341	382.3333740234376	551.8521118164062	130.056411743164	379.6983642578126	564.043212890625	63.53067016601559	318.5317993164063	491.1997985839844	62.25541305541989	373.3757324218751	166.2352294921876	1254.508422851562	276.7006530761719	nan	nan	nan	nan	nan	nan	nan	nan	nan	59.73951339721686	1324.539428710938	270.5348510742188	28.06210899353032	1021.043762207031	276.4206848144531	170.7319335937501	1254.673461914062	276.7481079101562	219.570068359375	1090.06689453125	273.4627990722656	23.86675643920903	1228.693969726562	379.4032897949219	172.1642303466797	868.7589111328125	145.5016937255859	224.2714080810547	875.75	357.0016784667969	19.1162261962891	885.3681030273438	252.5428771972656	42.26279449462894	886.0519409179688	332.2265319824219	48.96518325805667	551.03564453125	95.64064788818359	29.80014038085939	442.1798095703125	148.8631744384766	21.88646697998048	431.5179443359375	272.0750732421875	72.41416931152345	402.7970581054688	198.9550476074219	26.9034824371338	363.6477661132812	197.7949371337891	-161.67138671875	259.3912048339844	118.269416809082	-222.1310424804688	130.4900360107422	175.2300415039062	-194.2086486816407	125.0324020385742	252.4965209960938	-288.2684326171875	113.7521209716797	218.4224090576172	-111.168830871582	30.80093002319337	181.980712890625	-152.7274780273438	12.83684539794923	142.9844207763672	287.0585327148438	527.0882568359375	434.4386291503906	297.7605590820313	472.7396850585938	390.681396484375	283.2504577636719	462.2180480957031	255.5969696044922	358.2004089355469	476.0975036621094	310.5692443847656	362.2611083984375	410.0285339355469	324.0534973144531	326.8265686035156	192.9980163574218	425.9605407714844	353.2447204589844	67.80979919433591	378.6687316894531	375.1119079589844	83.73281097412107	297.8600463867188	300.4418334960938	29.94609069824217	338.5126342773438	497.3342895507812	41.8054275512695	364.6587219238282	469.6308288574219	29.0447025299072	408.4111022949219	-9.719962120056126	623.6747436523438	172.41455078125	7.072030067443873	571.8908081054688	139.5110015869141	-25.7899703979492	530.0001831054688	178.9667510986328	-58.83602905273438	273.70654296875	219.9784088134766	-89.24734497070312	236.9732818603516	170.9563446044922	-117.6820831298828	200.7445983886719	224.2553253173828	-3.730943441390975	412.2450561523438	145.7444458007812	-8.876257896423331	410.31982421875	268.7969055175781	211.0455169677734	597.6884155273438	409.9359436035156	276.9439392089844	572.6544189453125	401.1426391601562	257.5584106445313	506.4834899902344	397.096923828125	363.9259948730469	327.9561767578125	315.7802124023438	368.4674072265625	277.5746765136719	371.7641296386719	370.2461853027344	228.2458343505859	320.1620178222656	304.1993408203125	441.1075744628906	387.8619689941406	286.8629760742188	416.2542419433594	262.8698120117188	87.33896636962895	937.5007934570312	125.8916397094727	147.6733856201172	953.8690795898438	408.82177734375	157.6455230712891	819.8703002929688	270.056396484375	157.645523071289	-9.653004261458219e-15	270.056396484375	3.829260110855102	1.041157960891723	10.93675994873047	6.250802516937257	-18.38564872741699	-21.76333236694336	5.476789951324465	20.32029342651367	-14.14551162719727	8.112414948272949e-16	0	-13.24857902526855	2.473205566406251	-2.517735481262207	-23.97893714904785	0.5452889204025265	-15.80365943908691	-10.29174995422363	-0.932211339473725	-3.012470483779907	7.109780788421631	-4.347437974845993e-16	0	7.099905014038086	2.592652797698973	-14.30699062347412	5.965989112854004	-2.592652797698974	14.30699062347412	5.965989112854004	0.3180876970291137	0.6044877767562866	2.099535703659058	-0.3180876970291139	-0.6044877767562866	2.099535703659058	2.846030473709106	-13.6719388961792	-3.894905090332031	-2.846030473709105	13.6719388961792	-3.894905090332031	1.59758877754211	-7.549550533294678	65.46050262451172	2.365014076232904	-7.985286235809326	93.09600067138672	1.9752443783886e-16	3.225818872451782	1.209488352763701e-32	5.888866098607924e-18	0.09617248177528381	3.605890509133778e-34	-6.636287754168859e-17	-1.08378803730011	-4.063554278181836e-33	-7.697144003212455e-18	-0.125703901052475	-4.713141383055189e-34	4.17253807889192e-17	0.6814271807670593	2.554942701317718e-33	9.303362714624576e-18	0.1519354432821274	5.696666684885909e-34	-1.44979129462472e-17	-0.2367688864469528	-8.8774113419693e-34	-1.44979129462472e-17	-0.2367688864469528	-8.8774113419693e-34	1.574475169181824	6.766825199127197	0.2835023403167726	-0.8664766550064084	5.249433040618896	0.05428255349397654	2.889931917190555	68.97885131835938	16.04969596862793	-0.5533389449119529	53.51103973388672	-8.832585334777832	0.07986364513635684	1.436028599739075	-6.665863037109375	-0.2866695225238796	0.5160647630691528	-5.012187004089355	1.195571422576904	-5.390187740325928	-2.822965145111084	-0.03160709515213995	-4.460052013397217	0.2470330148935318	-0.310231685638428	-4.944621562957764	-1.012760639190674	0.1310753822326658	-3.063170433044434	0.971352219581604	-0.3161940574646	-6.411759376525879	-0.132135882973671	-0.3161940574646	-6.411759376525879	-0.132135882973671	265.1481628417968	-141.5507354736328	1199.915771484375	-546.4405517578125	-99.21898651123044	143.1380920410156	-17.12600708007806	29.52653121948242	-905.556884765625	-13.64799022674561	7.441643238067628	111.6003189086914	153.9962768554688	25.35781478881835	-266.3927307128906	22.67437171936036	3.168240070343016	-60.46040725708008	-64.51403808593754	15.96570014953614	750.6762084960938	-3.941587686538676	3.470645427703858	-334.6446838378906	14.18714809417722	38.08595657348633	464.8211975097656	-14.18714809417728	-38.08595657348633	464.8211975097656	
134	1.33	59.63129806518556	439.5245056152344	209.4905853271484	397.7124328613281	347.7114868164062	136.2952423095703	-12.77762985229488	452.1317749023438	-140.7722625732422	152.0657806396485	785.2085571289062	202.8243103027344	-87.98410034179689	49.93498229980469	176.9048309326172	5.060424804687503	220.3474731445312	177.7549285888672	-110.1571044921875	63.0013771057129	-15.54269409179688	-256.9500732421875	142.0614013671875	202.6273803710937	-200.4605560302734	125.5916519165039	207.7508697509766	58.47642517089843	-87.89899444580078	20.54496765136719	-343.7061767578125	246.1297607421875	-127.8440093994141	44.70266723632814	421.5054626464844	209.3907470703125	-31.66210937500001	19.22618484497071	168.3306427001953	-0.6472606658935603	76.03034973144531	168.6139984130859	-39.0531234741211	23.58163833618164	104.1814651489258	-87.98410034179689	49.93499755859376	176.9048309326172	167.6120147705078	787.7179565429688	267.6741027832031	297.0991516113282	777.3140869140625	237.0351715087891	136.5195770263672	782.6990966796875	137.9745330810547	176.5699768066407	920.6859130859375	260.38134765625	297.0184631347657	470.1538696289062	327.8071899414062	610.9990234375	582.7972412109375	263.3004760742188	234.6847534179688	452.8949584960938	-5.734527587890611	183.1582489013672	790.2273559570312	332.5238647460938	492.7996215820312	59.89752578735349	373.1903381347657	486.3284301757812	253.0067291259765	363.8430786132813	519.2232055664062	51.51621246337888	181.7433319091797	301.2785034179688	52.21635818481443	347.0927734375	358.1069946289062	66.46712493896482	341.590087890625	737.3671875	124.6070709228515	363.4921875000001	381.7117919921875	56.94643783569334	-41.88146972656248	300.6372985839844	446.2398986816406	328.6236572265625	556.6399536132812	62.45792770385739	381.8895568847657	554.4828491210938	126.827651977539	378.7738342285157	565.4478149414062	59.6641807556152	318.0738830566407	492.7995910644531	59.89752197265622	373.1903991699219	178.3227081298829	1255.730102539062	278.435302734375	nan	nan	nan	nan	nan	nan	nan	nan	nan	71.70991516113288	1325.395263671875	272.0386352539062	41.43752670288091	1021.679016113281	277.3065795898438	182.8181915283204	1255.91845703125	278.5059814453125	232.6510467529297	1091.724731445312	275.649658203125	35.6625709533692	1228.857543945312	380.9266357421875	186.9488830566407	869.2133178710938	148.0299530029297	237.5919494628907	877.387939453125	359.2831420898438	32.8204727172852	886.1011962890625	253.1376190185547	55.68961715698246	887.483154296875	333.3971862792969	65.4257736206055	551.26513671875	96.09196472167969	46.88507080078127	441.7437438964844	147.8333892822266	39.05629348754884	430.2601318359375	271.3092651367188	90.1224822998047	400.9921875	197.3719635009766	42.36726760864259	362.4869995117188	196.1065368652344	-150.5600128173828	265.0191650390625	117.7677307128906	-214.62548828125	137.5111389160156	174.5653228759766	-186.0269470214844	130.8061065673828	251.2615356445312	-280.2842712402344	124.356803894043	218.6060943603515	-110.6936874389649	30.78289031982423	182.0837860107422	-152.5014953613281	14.48028850555421	143.7571105957031	298.4573364257813	527.9103393554688	435.6667785644531	308.9437866210938	473.4557189941406	391.6184692382812	292.9505920410156	463.1305541992188	256.89501953125	368.7651672363282	476.0798645019531	310.954833984375	371.7605590820312	409.5776977539062	324.21533203125	333.7464599609375	193.2472229003906	426.8780517578125	355.8037109375	67.39611816406247	379.0077209472656	377.5904541015625	82.87787628173825	298.0915222167969	301.6466674804688	30.98269653320311	339.0157165527344	499.9402465820312	39.03200912475583	364.8282165527344	471.3617858886719	25.90384292602536	408.7648010253907	6.363704681396512	622.6650390625	173.8084411621094	23.49991226196292	571.3408203125	140.4746856689453	-8.815510749816873	528.8822631835938	179.9016876220703	-46.44551467895508	275.0534973144531	218.3995208740234	-78.48793792724609	239.8299560546875	169.4808654785156	-107.3949127197266	204.0088806152344	222.8232116699219	12.47935676574709	412.4065551757812	144.6770324707031	8.017332077026376	409.6522827148438	267.6611328125	223.0075988769531	598.9832153320312	411.4707641601562	288.5805969238282	573.5843505859375	402.3377685546875	268.3588562011719	507.5098571777344	398.4657592773438	371.5692138671875	327.2912292480469	315.93896484375	375.943603515625	276.8392639160156	371.8744201660156	375.8366088867188	227.4416351318359	320.2461242675781	315.0788879394531	441.8292236328125	388.7189025878906	295.7837219238281	417.1394958496094	263.9661254882812	103.2771530151368	938.1976928710938	126.6087646484375	160.9905395507813	955.6673583984375	410.4337768554688	169.4284210205078	821.050048828125	271.1725158691406	169.4284210205078	-1.037449867436775e-14	271.1725158691406	4.49585723876953	0.6708893775939939	10.37615203857422	6.092082023620606	-18.8261775970459	-23.98772811889648	5.705790042877199	20.94842529296875	-11.6917610168457	6.679921466611919e-16	0	-10.90913963317871	1.6706520318985	-2.479921817779541	-23.69821166992188	0.5935698747634885	-14.16405391693115	-11.29419231414795	-1.231358289718629	-4.289040565490723	6.527701377868652	-3.985821957018578e-16	0	6.509341239929199	2.936552524566649	-14.2198429107666	6.201104164123535	-2.93655252456665	14.2198429107666	6.201104164123535	0.295043796300888	0.9005283117294312	2.393794059753418	-0.2950437963008883	-0.9005283117294312	2.393794059753418	3.132215976715087	-13.29133415222168	-3.854142904281616	-3.132215976715087	13.29133415222168	-3.854142904281616	0.25308713316917	-7.612969875335693	61.39917373657227	2.795208930969232	-7.753450393676758	92.29669189453125	2.040949041386114e-16	3.333122730255127	1.249720855378182e-32	8.046789228975823e-18	0.1314140409231186	4.927237336339321e-34	-7.16261850720464e-17	-1.169744372367859	-4.385838914180878e-33	-1.449055234949449e-17	-0.2366486787796021	-8.872904276342793e-34	4.884415360725366e-17	0.7976855635643005	2.990841818609242e-33	7.171443467627658e-18	0.1171185597777367	4.391242643948203e-34	-1.376696745776228e-17	-0.2248316407203674	-8.429836315557179e-34	-1.376696745776228e-17	-0.2248316407203674	-8.429836315557179e-34	1.483452439308167	5.774877548217773	0.2262663841247559	-1.120243430137634	6.032787322998047	-0.01459299866110093	2.306487083435061	58.86725234985352	15.12183856964111	0.1487563550472304	61.49629974365234	-11.41940307617188	-0.01233240682631687	1.507688283920288	-5.63254976272583	-0.3302423357963558	0.8250305652618408	-5.81759786605835	1.091093420982361	-4.471424102783203	-2.469562530517578	-0.01914393715560469	-5.325691223144531	0.04458774998784065	-0.219662666320801	-4.030426025390625	-0.7599218487739563	0.1689009964466092	-3.929561614990234	1.170868873596191	-0.254700750112534	-6.386499404907227	-0.1105984598398209	-0.254700750112534	-6.386499404907227	-0.1105984598398209	223.0079956054687	-123.3027114868164	1033.338500976562	-629.6943359375	-124.4421005249023	204.0503692626953	-19.69633102416987	41.12423324584961	-764.7286987304688	-24.16807174682618	10.68602275848389	96.599609375	154.5133972167969	24.77452659606933	-263.4209899902344	2.836057662963877	4.988978862762451	-152.4774017333984	-29.38332939147953	18.39461708068848	673.0928955078125	-62.40676116943357	-3.385572195053097	-301.1486511230469	-5.925332546234156	32.53240966796875	429.2382202148438	5.925332546234102	-32.53240966796875	429.2382202148438	
